#N canvas 804 447 450 300 10;
#X declare -lib oscx;
#X msg 241 163 connect localhost 3333;
#X obj 202 252 sendOSC;
#X msg 302 216 disconnect;
#X msg 133 191 send /test \$1;
#X floatatom 112 151 5 0 0 0 - - -;
#X obj 345 17 import oscx;
#X obj 44 39 tgl 15 0 empty empty empty 17 7 0 10 -262144 -1 -1 0 1
;
#X obj 41 82 metro 300;
#X connect 0 0 1 0;
#X connect 2 0 1 0;
#X connect 3 0 1 0;
#X connect 4 0 3 0;
#X connect 6 0 7 0;
#X connect 7 0 4 0;
